<svg viewBox="0 0 311 111" fill="none" xmlns="http://www.w3.org/2000/svg">
<g clip-path="url(#clip0_1_78)">
<path d="M80.7104 54.4766C80.4697 47.1328 77.3851 41.5196 70.5238 38.4948C62.4137 34.9132 54.3486 35.485 46.5243 39.5632C44.5231 40.6167 44.3877 42.1366 46.103 43.6114C47.6378 44.9507 49.2628 46.1546 51.1738 47.6745C49.4585 47.3435 48.36 46.7867 47.2767 46.1095C42.9432 43.4157 38.67 40.6016 34.171 38.1637C30.4846 36.1773 26.5875 34.9884 22.4045 34.6724C13.8429 34.0102 2.34727 37.9681 0.331017 50.6994C-0.13543 53.6038 -0.105337 56.5082 0.361111 59.3976C2.49774 72.5201 6.37979 85.131 11.7364 97.2905C12.9853 100.12 14.5652 102.753 16.6266 105.071C18.5827 107.253 20.7042 109.254 23.4879 110.338C27.5505 111.933 30.7855 110.639 32.5761 106.681C33.208 105.281 33.6895 103.822 34.2312 102.377C34.9234 100.526 35.5553 98.6599 36.3377 96.839C36.8945 95.5297 37.8274 94.4914 39.4374 94.5215C41.0624 94.5516 42.0404 95.5598 42.6574 96.9443C42.9733 97.6968 43.2141 98.4944 43.4398 99.292C44.0116 101.399 44.493 103.551 45.11 105.658C45.8773 108.351 48.029 109.931 50.8428 110.007C53.1599 110.052 55.2815 109.345 57.2827 108.261C61.24 106.109 64.0237 102.798 66.1753 98.9759C71.3062 89.9015 75.3839 80.3907 78.1224 70.323C79.5217 65.1312 80.906 59.9393 80.7104 54.4766ZM76.6027 55.6354C75.9858 65.4773 72.9313 74.6571 69.1245 83.6562C66.9277 88.8631 64.3095 93.8744 61.4206 98.7502C59.3441 102.242 56.4702 104.74 52.4678 105.793C50.3011 106.365 49.2929 105.733 48.7212 103.551C48.0742 101.113 47.4873 98.6599 46.7801 96.237C46.2084 94.2957 45.1401 92.6554 43.3495 91.5569C39.7082 89.3296 35.1491 90.5335 33.1629 94.3108C31.6281 97.2303 30.7103 100.406 29.4915 103.476C27.8815 107.554 26.4822 107.96 22.9011 105.402C20.5839 103.746 18.9137 101.504 17.394 99.1264C13.4668 92.9263 11.3301 85.9888 9.17847 79.0814C7.02679 72.159 5.3867 65.1011 4.2883 57.9228C3.97232 55.9062 3.95727 53.8747 4.27325 51.8581C5.65755 43.205 12.8047 37.8778 21.8628 38.6603C26.0007 39.0064 29.8225 40.3157 33.3735 42.3924C37.7973 44.9658 42.1157 47.7046 46.5243 50.293C50.6171 52.6858 55.0257 53.8295 59.8106 53.047C62.9553 52.5353 65.5885 51.0304 67.8004 48.7581C68.4925 48.0508 69.0492 47.2231 68.5677 46.275C68.0411 45.2065 66.9578 44.9959 65.8593 45.1614C64.8362 45.3119 63.828 45.643 62.8049 45.8235C58.2909 46.576 54.5292 44.9357 51.0985 42.0162C57.9297 39.7288 64.6707 39.2623 70.9903 43.4007C75.3388 46.26 76.9337 50.5489 76.6027 55.6354Z" fill="#FCFCFC"/>
<path d="M73.2774 9.34523C72.9764 10.3234 72.7206 11.3317 72.3445 12.2797C69.9069 18.4498 67.3941 24.6047 64.9866 30.7898C64.46 32.1291 63.6776 32.7311 62.2632 32.6107C55.2665 32.0238 48.8566 33.7845 42.9282 37.4263C42.0404 37.9681 41.1677 37.9681 40.295 37.4263C40.1145 37.3059 39.9038 37.2156 39.7232 37.0952C34.3967 33.4083 28.4232 31.5272 22.0133 30.9252C20.629 30.7898 19.6961 30.2179 19.1845 28.8334C16.9275 22.7086 14.0085 16.8395 11.9621 10.6244C11.8116 10.1579 11.2248 9.57096 11.7966 9.17969C12.263 8.86367 12.6091 9.57096 13.0003 9.81174C15.1219 11.0758 17.1984 12.4302 19.3801 13.589C20.8998 14.4016 21.3061 15.3046 20.5387 16.8997C19.3651 19.3075 19.8315 21.595 21.3813 23.7018C22.6152 25.3572 25.0678 25.8839 26.6627 24.8305C28.1072 23.8974 28.7843 21.3542 27.4451 19.8643C25.3386 17.5167 27.069 15.741 27.7912 13.7696C28.032 13.1074 28.6188 13.0773 29.1304 13.5137C30.0332 14.3113 30.936 15.124 31.7786 15.9968C32.4407 16.689 32.2149 17.4866 31.9291 18.2993C31.0413 20.8726 32.2149 23.3256 34.6826 24.1232C36.729 24.8004 39.2869 23.446 39.979 21.0682C41.0022 17.5167 40.8517 14.1007 37.9327 11.3317C37.2706 10.6996 37.1653 10.0676 37.5415 9.26998C38.8204 6.5311 40.0994 3.79222 41.3633 1.06839C41.589 0.571774 41.8147 -0.0301779 42.4768 0.0149685C43.0335 0.0450661 43.2291 0.601872 43.4398 1.03829C44.7639 3.82232 46.0278 6.62139 47.3971 9.36028C47.9086 10.3836 47.2767 10.8501 46.7049 11.4521C44.0717 14.221 43.4097 18.8711 45.1852 22.0013C46.1482 23.7168 47.7883 24.5596 49.5788 24.2586C51.3543 23.9576 52.7386 22.6032 53.175 20.8124C53.4007 19.9095 53.2502 19.0517 52.8289 18.2541C52.227 17.1255 52.5129 16.2677 53.4759 15.5303C53.5662 15.4701 53.6264 15.3497 53.7167 15.3046C54.785 14.7327 55.3116 12.7463 56.8765 13.6341C58.3811 14.4919 58.6219 17.6973 57.6138 19.2172C56.1994 21.3542 56.4401 23.5965 58.2307 24.7402C60.0965 25.9441 62.3836 25.3271 63.7679 23.2503C65.2725 21.0081 65.6186 18.7056 64.1741 16.2978C63.7829 15.6507 63.482 14.8681 64.2945 14.4167C67.2587 12.7764 70.0423 10.82 72.9162 9.01415C73.0366 9.14959 73.157 9.25494 73.2774 9.34523Z" fill="#C7930E"/>
<path d="M154.454 53.7392C154.725 53.2577 154.77 52.7159 154.59 52.1742C154.063 50.5038 153.251 49.0892 152.197 47.9906C151.129 46.877 149.85 46.1245 148.39 45.7634C146.946 45.4173 145.366 45.5075 143.696 46.0343C142.026 46.561 140.626 47.4338 139.543 48.6076C138.46 49.7965 137.752 51.211 137.451 52.8213C137.136 54.4164 137.256 56.0869 137.798 57.8024C138.339 59.518 139.227 60.9476 140.446 62.0462C141.68 63.1598 143.124 63.8972 144.764 64.2132C146.404 64.5292 148.12 64.4089 149.865 63.852C150.858 63.536 151.836 63.0244 152.799 62.3321C153.762 61.6248 154.529 60.8573 155.071 60.0447C155.432 59.5481 155.523 58.9913 155.342 58.4345C155.222 58.0432 154.921 57.5014 154.138 57.2005C153.702 57.0048 153.22 56.9898 152.679 57.1553C152.167 57.3209 151.746 57.6218 151.46 58.0432C151.189 58.4345 150.768 58.8257 150.241 59.217C149.715 59.5932 149.173 59.8792 148.646 60.0597C147.247 60.4962 145.968 60.4811 144.764 59.9995C143.801 59.6083 143.049 59.0063 142.462 58.1485L153.205 54.7475C153.777 54.5519 154.198 54.2208 154.454 53.7392ZM141.379 54.4917C141.364 53.5135 141.589 52.6557 142.056 51.8732C142.643 50.9101 143.575 50.2178 144.9 49.8115C146.073 49.4353 147.111 49.4955 148.044 49.977C148.812 50.3533 149.444 50.9552 149.955 51.7829L141.379 54.4917Z" fill="#FCFCFC"/>
<path d="M194.704 54.3863V62.1816C194.704 62.8136 194.493 63.3554 194.057 63.7918C193.636 64.2132 193.079 64.4389 192.447 64.4389C191.83 64.4389 191.273 64.2132 190.852 63.7918C190.416 63.3554 190.205 62.8136 190.205 62.1816V54.3863C190.205 52.8664 189.799 51.7227 189.016 50.9552C188.204 50.1877 187.151 49.8115 185.797 49.8115C185.014 49.8115 184.292 49.977 183.645 50.278C183.013 50.594 182.531 51.0003 182.185 51.527C181.839 52.0387 181.674 52.5955 181.674 53.2275V62.1665C181.674 62.7986 181.463 63.3253 181.057 63.7617C180.635 64.1981 180.079 64.4239 179.432 64.4239C178.8 64.4239 178.258 64.2132 177.822 63.7768C177.385 63.3403 177.175 62.7986 177.175 62.1665V48.0357C177.175 47.3585 177.4 46.8168 177.837 46.4104C178.273 45.9891 178.8 45.7934 179.432 45.7934C180.094 45.7934 180.635 46.0041 181.057 46.4255C181.267 46.6362 181.433 46.8769 181.538 47.1629C182.05 46.7867 182.622 46.4857 183.239 46.2449C184.232 45.8386 185.33 45.6429 186.444 45.6429C187.993 45.6429 189.423 46.0041 190.672 46.6813C191.936 47.3585 192.929 48.3818 193.651 49.7061C194.358 51.0003 194.704 52.5804 194.704 54.3863Z" fill="#FCFCFC"/>
<path d="M273.865 46.4406C273.443 46.0192 272.887 45.7935 272.27 45.7935C271.638 45.7935 271.081 46.0192 270.66 46.4406C270.464 46.6362 270.299 46.8619 270.208 47.1027C270.103 47.0425 270.013 46.9823 269.908 46.9071C268.493 46.0794 266.898 45.6731 265.168 45.6731C264.837 45.6731 264.506 45.6881 264.175 45.7182C262.685 45.7634 261.286 46.1848 260.067 46.9372C258.743 47.7649 257.675 48.8935 256.922 50.3382C256.365 51.3766 256.019 52.5203 255.869 53.7393C255.854 53.7844 255.854 53.8446 255.854 53.8897C255.809 54.2961 255.779 54.7024 255.779 55.1087C255.779 55.5301 255.809 55.9364 255.854 56.3277C255.854 56.3728 255.869 56.433 255.869 56.4781C256.004 57.6971 256.365 58.8408 256.922 59.8792C257.675 61.3239 258.743 62.4525 260.067 63.2802C261.286 64.0326 262.685 64.439 264.175 64.4992C264.506 64.5443 264.837 64.5443 265.168 64.5443C266.898 64.5443 268.493 64.1229 269.908 63.3103C270.013 63.2501 270.103 63.1899 270.208 63.1147C270.314 63.3554 270.464 63.5812 270.66 63.7768C271.081 64.1982 271.638 64.4239 272.27 64.4239C272.887 64.4239 273.443 64.1982 273.865 63.7768C274.301 63.3404 274.527 62.7986 274.527 62.1666V48.0358C274.527 47.4188 274.286 46.877 273.865 46.4406ZM269.772 57.2306C269.727 57.3359 269.697 57.4413 269.652 57.5466C269.607 57.6519 269.546 57.7422 269.501 57.8325C269.065 58.6301 268.478 59.2622 267.726 59.7136C266.973 60.1801 266.131 60.4059 265.183 60.4059C264.235 60.4059 263.407 60.1801 262.64 59.7136C261.888 59.2622 261.271 58.6301 260.849 57.8325C260.804 57.7272 260.744 57.6369 260.699 57.5466C260.654 57.4413 260.594 57.3359 260.563 57.2306C260.308 56.5835 260.187 55.8762 260.187 55.1237C260.187 54.3713 260.308 53.664 260.563 53.0169C260.609 52.9116 260.654 52.8062 260.699 52.7009C260.744 52.5955 260.804 52.5053 260.849 52.415C261.286 51.6174 261.888 50.9853 262.64 50.5339C263.392 50.0673 264.235 49.8416 265.183 49.8416C266.131 49.8416 266.958 50.0673 267.726 50.5339C268.478 50.9853 269.08 51.6174 269.501 52.415C269.546 52.5203 269.607 52.6106 269.652 52.7009C269.697 52.8062 269.742 52.9116 269.772 53.0169C270.028 53.664 270.148 54.3713 270.148 55.1237C270.148 55.8762 270.013 56.5835 269.772 57.2306Z" fill="#FCFCFC"/>
<path d="M115.574 44.6798C114.49 42.7084 112.94 41.1584 110.984 40.0448C109.043 38.9462 106.786 38.3744 104.304 38.3744H98.5708C97.9389 38.3744 97.3972 38.5851 96.9458 39.0215C96.5094 39.4429 96.2687 39.9997 96.2687 40.6618V62.1214C96.2687 62.7535 96.4944 63.2952 96.9458 63.7467C97.3822 64.1831 97.9238 64.4088 98.5708 64.4088H104.304C106.786 64.4088 109.028 63.852 110.984 62.7384C112.94 61.6398 114.49 60.0748 115.574 58.1034C116.642 56.132 117.199 53.8747 117.199 51.3916C117.214 48.8785 116.657 46.6362 115.574 44.6798ZM111.692 55.9815C110.984 57.3058 109.976 58.3743 108.712 59.1116C107.433 59.8641 105.959 60.2403 104.319 60.2403H100.858V42.558H104.319C105.944 42.558 107.418 42.9342 108.712 43.6716C109.991 44.424 110.984 45.4624 111.692 46.8017C112.414 48.1411 112.775 49.676 112.775 51.3766C112.775 53.0771 112.399 54.6271 111.692 55.9815Z" fill="#FCFCFC"/>
<path d="M230.184 62.1817C230.184 62.8288 229.913 63.4006 229.432 63.8069C228.965 64.1982 228.379 64.3938 227.671 64.3938H227.1C225.956 64.3938 224.873 64.0929 223.925 63.4909C222.977 62.904 222.225 62.0613 221.683 61.038C221.156 60.0297 220.885 58.8709 220.885 57.6068V42.4978C220.885 41.8658 221.081 41.3391 221.502 40.9026C221.939 40.4813 222.465 40.2856 223.097 40.2856C223.729 40.2856 224.271 40.4813 224.692 40.9026C225.114 41.324 225.309 41.8658 225.309 42.4978V46.4256H227.386C227.972 46.4256 228.484 46.6061 228.89 46.9673C229.296 47.3435 229.492 47.8552 229.492 48.4421C229.492 48.9989 229.296 49.4955 228.89 49.8567C228.499 50.2179 227.987 50.4135 227.386 50.4135H225.309V57.6068C225.309 58.2991 225.505 58.8709 225.866 59.3224C226.227 59.7588 226.618 59.9544 227.085 59.9544H228.153C228.71 59.9544 229.221 60.1651 229.597 60.6015C230.004 61.0379 230.184 61.5647 230.184 62.1817Z" fill="#FCFCFC"/>
<path d="M308.878 62.1816C308.878 62.8588 308.593 63.4156 308.021 63.8219C307.509 64.1981 306.862 64.3938 306.08 64.3938H306.02C304.996 64.3938 304.048 64.1078 303.206 63.551C302.378 62.9792 301.746 62.1966 301.28 61.1884C300.843 60.2102 300.618 59.1116 300.618 57.9077V40.6016C300.618 39.9545 300.828 39.4278 301.25 39.0064C301.671 38.5851 302.213 38.3744 302.845 38.3744C303.477 38.3744 304.003 38.5851 304.425 39.0064C304.846 39.4278 305.057 39.9545 305.057 40.6016V57.8927C305.057 58.5699 305.177 59.1116 305.418 59.518C305.689 59.9694 305.929 59.9694 306.004 59.9694H306.802C307.389 59.9694 307.915 60.1801 308.307 60.6165C308.683 61.0379 308.878 61.5646 308.878 62.1816Z" fill="#FCFCFC"/>
<path d="M110.804 91.6171C110.804 91.9481 110.683 92.234 110.458 92.4598C110.232 92.6855 109.916 92.8059 109.525 92.8059C109.028 92.8059 108.652 92.5952 108.381 92.1739L104.018 85.1762H103.566H100.316V91.4967C100.316 91.8729 100.196 92.1889 99.9551 92.4297C99.7144 92.6855 99.3984 92.8059 99.0072 92.8059C98.631 92.8059 98.315 92.6855 98.0743 92.4297C97.8336 92.1739 97.6981 91.8578 97.6981 91.4967V74.326C97.6981 73.9347 97.8185 73.6187 98.0743 73.3779C98.3301 73.1371 98.6461 73.0167 99.0072 73.0167H103.566C104.815 73.0167 105.944 73.2726 106.922 73.7993C107.915 74.326 108.682 75.0634 109.224 76.0114C109.781 76.9595 110.051 78.043 110.051 79.262C110.051 80.4659 109.751 81.5343 109.134 82.4523C108.532 83.3854 107.689 84.0776 106.651 84.5592L110.533 90.8044C110.714 91.0452 110.804 91.3311 110.804 91.6171ZM103.566 82.7383C104.71 82.7383 105.658 82.4072 106.41 81.7601C107.147 81.113 107.524 80.2702 107.524 79.2319C107.524 78.1183 107.147 77.2003 106.41 76.493C105.673 75.7857 104.725 75.4245 103.566 75.4245H100.316V82.7232H103.566V82.7383Z" fill="#FCFCFC"/>
<path d="M116.627 92.4297C116.371 92.1739 116.251 91.8578 116.251 91.4967V74.326C116.251 73.9347 116.371 73.6187 116.627 73.3779C116.883 73.1371 117.199 73.0167 117.56 73.0167H129.025C129.417 73.0167 129.733 73.1371 129.958 73.3628C130.199 73.5886 130.319 73.8896 130.319 74.2658C130.319 74.6269 130.199 74.9129 129.958 75.1236C129.717 75.3493 129.402 75.4546 129.025 75.4546H118.884V81.6246H126.166C126.543 81.6246 126.844 81.745 127.099 81.9708C127.34 82.1965 127.46 82.4824 127.46 82.8436C127.46 83.2048 127.34 83.4907 127.099 83.7164C126.859 83.9422 126.543 84.0625 126.166 84.0625H118.884V90.3981H129.025C129.417 90.3981 129.733 90.5034 129.958 90.7292C130.199 90.9549 130.319 91.2408 130.319 91.587C130.319 91.9632 130.199 92.2641 129.958 92.4899C129.717 92.7156 129.402 92.836 129.025 92.836H117.56C117.199 92.8059 116.883 92.6855 116.627 92.4297Z" fill="#FCFCFC"/>
<path d="M136.91 92.4447C136.669 92.204 136.549 91.8879 136.549 91.4967V74.326C136.549 73.9347 136.669 73.6187 136.91 73.3779C137.151 73.1371 137.467 73.0167 137.843 73.0167C138.023 73.0167 138.219 73.0619 138.399 73.1522C138.58 73.2425 138.746 73.3628 138.851 73.4983L149.91 88.216V74.341C149.91 73.9498 150.031 73.6337 150.286 73.3929C150.542 73.1522 150.858 73.0318 151.219 73.0318C151.595 73.0318 151.896 73.1522 152.152 73.3929C152.393 73.6337 152.513 73.9498 152.513 74.341V91.4967C152.513 91.8879 152.393 92.204 152.152 92.4447C151.911 92.6855 151.595 92.8059 151.219 92.8059C151.039 92.8059 150.843 92.7608 150.647 92.6855C150.452 92.6103 150.301 92.4899 150.211 92.3394L139.152 77.6217V91.4666C139.152 91.8428 139.031 92.1588 138.791 92.3996C138.55 92.6554 138.234 92.7758 137.843 92.7758C137.467 92.8059 137.151 92.6855 136.91 92.4447Z" fill="#FCFCFC"/>
<path d="M175.068 91.5117C175.068 91.8728 174.948 92.1738 174.692 92.4296C174.436 92.6855 174.12 92.8058 173.759 92.8058C173.503 92.8058 173.263 92.7306 173.037 92.5952C172.811 92.4597 172.646 92.249 172.54 91.9932L171.111 88.4417H162.008L160.563 91.9932C160.443 92.249 160.277 92.4447 160.052 92.5952C159.826 92.7457 159.6 92.8058 159.344 92.8058C158.968 92.8058 158.667 92.6704 158.412 92.4146C158.171 92.1588 158.035 91.8427 158.035 91.4816C158.035 91.316 158.08 91.1204 158.156 90.8947L165.288 73.8745C165.544 73.2875 165.95 72.9866 166.537 72.9866C167.139 72.9866 167.56 73.2875 167.786 73.8745L174.933 90.9398C175.023 91.1806 175.068 91.3612 175.068 91.5117ZM162.895 86.2747H170.223L166.597 77.2454L162.895 86.2747Z" fill="#FCFCFC"/>
<path d="M180.876 92.4297C180.62 92.1739 180.5 91.8578 180.5 91.4967V74.326C180.5 73.9347 180.62 73.6187 180.876 73.3779C181.132 73.1371 181.448 73.0167 181.809 73.0167C182.2 73.0167 182.516 73.1371 182.757 73.3779C182.998 73.6187 183.118 73.9347 183.118 74.326V91.4967C183.118 91.8729 182.998 92.1889 182.757 92.4297C182.516 92.6705 182.2 92.8059 181.809 92.8059C181.448 92.8059 181.132 92.6855 180.876 92.4297Z" fill="#FCFCFC"/>
<path d="M192.552 91.9481C191.213 91.2108 190.28 90.2326 189.769 89.0287C189.679 88.833 189.648 88.6525 189.648 88.517C189.648 88.2612 189.739 88.0355 189.934 87.8398C190.115 87.6442 190.371 87.5088 190.702 87.4486C190.747 87.4335 190.837 87.4185 190.958 87.4185C191.228 87.4185 191.484 87.4937 191.725 87.6592C191.966 87.8248 192.146 88.0355 192.267 88.3063C192.567 88.9685 193.169 89.5253 194.072 89.9768C194.975 90.4282 195.953 90.669 197.036 90.669C198.3 90.669 199.384 90.3831 200.256 89.7962C201.129 89.2093 201.58 88.4117 201.58 87.4034C201.58 86.4403 201.204 85.6126 200.467 84.9354C199.73 84.2582 198.586 83.8368 197.066 83.6864C194.975 83.4907 193.32 82.8737 192.116 81.8504C190.912 80.8271 190.311 79.5479 190.311 78.013C190.311 76.9294 190.626 75.9964 191.243 75.2139C191.86 74.4313 192.703 73.8294 193.786 73.408C194.855 73.0017 196.058 72.791 197.397 72.791C198.857 72.791 200.076 73.092 201.069 73.6789C202.062 74.2658 202.92 75.1236 203.612 76.2221C203.807 76.5382 203.913 76.8542 203.913 77.1401C203.913 77.5163 203.747 77.8173 203.401 78.0581C203.221 78.1785 202.995 78.2387 202.739 78.2387C202.483 78.2387 202.243 78.1785 202.032 78.0431C201.806 77.9227 201.641 77.7421 201.52 77.5163C201.069 76.7489 200.497 76.177 199.805 75.7857C199.113 75.3945 198.255 75.1838 197.202 75.1838C195.923 75.1838 194.87 75.4396 194.087 75.9362C193.29 76.4328 192.899 77.1552 192.899 78.1032C192.899 78.9761 193.26 79.7135 193.967 80.3154C194.674 80.9023 195.953 81.2936 197.774 81.4892C199.805 81.6849 201.37 82.3019 202.498 83.3252C203.612 84.3485 204.169 85.7029 204.169 87.3733C204.169 88.5923 203.837 89.6306 203.175 90.5035C202.513 91.3763 201.641 92.0234 200.557 92.4598C199.459 92.8962 198.3 93.1069 197.051 93.1069C195.396 93.0618 193.907 92.7006 192.552 91.9481Z" fill="#FCFCFC"/>
<path d="M212.549 91.9481C211.21 91.2108 210.277 90.2326 209.766 89.0287C209.676 88.833 209.646 88.6525 209.646 88.517C209.646 88.2612 209.736 88.0355 209.931 87.8398C210.112 87.6442 210.368 87.5088 210.699 87.4486C210.744 87.4335 210.834 87.4185 210.955 87.4185C211.225 87.4185 211.481 87.4937 211.722 87.6592C211.963 87.8248 212.143 88.0355 212.264 88.3063C212.565 88.9685 213.166 89.5253 214.069 89.9768C214.972 90.4282 215.95 90.669 217.033 90.669C218.297 90.669 219.381 90.3831 220.253 89.7962C221.126 89.2093 221.578 88.4117 221.578 87.4034C221.578 86.4403 221.201 85.6126 220.464 84.9354C219.727 84.2582 218.583 83.8368 217.064 83.6864C214.972 83.4907 213.317 82.8737 212.113 81.8504C210.909 80.8271 210.308 79.5479 210.308 78.013C210.308 76.9294 210.624 75.9964 211.24 75.2139C211.857 74.4313 212.7 73.8294 213.783 73.408C214.852 73.0017 216.055 72.791 217.395 72.791C218.854 72.791 220.073 73.092 221.066 73.6789C222.059 74.2658 222.917 75.1236 223.609 76.2221C223.804 76.5382 223.91 76.8542 223.91 77.1401C223.91 77.5163 223.744 77.8173 223.398 78.0581C223.218 78.1785 222.992 78.2387 222.736 78.2387C222.48 78.2387 222.24 78.1785 222.029 78.0431C221.803 77.9227 221.638 77.7421 221.517 77.5163C221.066 76.7489 220.494 76.177 219.802 75.7857C219.11 75.3945 218.252 75.1838 217.199 75.1838C215.92 75.1838 214.867 75.4396 214.084 75.9362C213.287 76.4328 212.896 77.1552 212.896 78.1032C212.896 78.9761 213.257 79.7135 213.964 80.3154C214.671 80.9023 215.95 81.2936 217.771 81.4892C219.802 81.6849 221.367 82.3019 222.495 83.3252C223.609 84.3485 224.166 85.7029 224.166 87.3733C224.166 88.5923 223.835 89.6306 223.172 90.5035C222.51 91.3763 221.638 92.0234 220.554 92.4598C219.456 92.8962 218.297 93.1069 217.048 93.1069C215.378 93.0618 213.889 92.7006 212.549 91.9481Z" fill="#FCFCFC"/>
<path d="M245.652 91.5117C245.652 91.8728 245.532 92.1738 245.276 92.4296C245.02 92.6855 244.704 92.8058 244.343 92.8058C244.087 92.8058 243.847 92.7306 243.621 92.5952C243.395 92.4597 243.23 92.249 243.124 91.9932L241.71 88.4417H232.607L231.162 91.9932C231.042 92.249 230.876 92.4447 230.651 92.5952C230.425 92.7457 230.199 92.8058 229.943 92.8058C229.567 92.8058 229.266 92.6704 229.011 92.4146C228.77 92.1588 228.649 91.8427 228.649 91.4816C228.649 91.316 228.695 91.1204 228.77 90.8947L235.902 73.8745C236.158 73.2875 236.564 72.9866 237.151 72.9866C237.753 72.9866 238.174 73.2875 238.4 73.8745L245.547 90.9398C245.622 91.1806 245.652 91.3612 245.652 91.5117ZM233.479 86.2747H240.807L237.181 77.2454L233.479 86.2747Z" fill="#FCFCFC"/>
<path d="M251.445 92.4447C251.204 92.204 251.084 91.8879 251.084 91.4967V74.326C251.084 73.9347 251.204 73.6187 251.445 73.3779C251.686 73.1371 252.002 73.0167 252.378 73.0167C252.559 73.0167 252.754 73.0619 252.935 73.1522C253.115 73.2425 253.266 73.3628 253.386 73.4983L264.446 88.216V74.341C264.446 73.9498 264.566 73.6337 264.822 73.3929C265.077 73.1522 265.393 73.0318 265.755 73.0318C266.116 73.0318 266.432 73.1522 266.687 73.3929C266.928 73.6337 267.064 73.9498 267.064 74.341V91.4967C267.064 91.8879 266.943 92.204 266.687 92.4447C266.432 92.6855 266.131 92.8059 265.755 92.8059C265.574 92.8059 265.378 92.7608 265.183 92.6855C264.987 92.6103 264.837 92.4899 264.746 92.3394L253.687 77.6217V91.4666C253.687 91.8428 253.567 92.1588 253.326 92.3996C253.085 92.6554 252.769 92.7758 252.378 92.7758C252.002 92.8059 251.701 92.6855 251.445 92.4447Z" fill="#FCFCFC"/>
<path d="M278.589 91.7224C277.1 90.8194 275.911 89.6005 275.053 88.0505C274.196 86.5004 273.759 84.7849 273.759 82.9038C273.759 81.0377 274.196 79.3372 275.053 77.7872C275.911 76.2371 277.1 75.0182 278.589 74.1153C280.079 73.2123 281.734 72.7609 283.555 72.7609C284.834 72.7609 285.947 72.9264 286.895 73.2725C287.828 73.6036 288.791 74.1755 289.754 74.9429C289.95 75.0934 290.085 75.259 290.16 75.4095C290.22 75.575 290.266 75.7556 290.266 75.9813C290.266 76.3124 290.145 76.5983 289.889 76.824C289.649 77.0498 289.363 77.1551 289.047 77.1551C288.731 77.1551 288.43 77.0498 288.159 76.824C287.467 76.2371 286.79 75.8007 286.128 75.5449C285.466 75.2891 284.608 75.1536 283.57 75.1536C282.246 75.1536 281.042 75.4998 279.929 76.192C278.815 76.8842 277.942 77.8323 277.295 79.0212C276.648 80.21 276.317 81.5193 276.317 82.9188C276.317 84.3334 276.648 85.6426 277.295 86.8315C277.942 88.0204 278.83 88.9534 279.929 89.6456C281.042 90.3379 282.246 90.684 283.57 90.684C285.195 90.684 286.745 90.1272 288.234 89.0136C288.52 88.8029 288.806 88.7126 289.077 88.7126C289.393 88.7126 289.664 88.833 289.874 89.0587C290.085 89.2845 290.19 89.5854 290.19 89.9617C290.19 90.3228 290.055 90.6238 289.784 90.8947C287.963 92.3695 285.887 93.1069 283.57 93.1069C281.734 93.0617 280.094 92.6102 278.589 91.7224Z" fill="#FCFCFC"/>
<path d="M297.292 92.4297C297.037 92.1739 296.916 91.8578 296.916 91.4967V74.326C296.916 73.9347 297.037 73.6187 297.292 73.3779C297.548 73.1371 297.864 73.0167 298.225 73.0167H309.691C310.082 73.0167 310.398 73.1371 310.624 73.3628C310.85 73.5886 310.985 73.8896 310.985 74.2658C310.985 74.6269 310.865 74.9129 310.624 75.1236C310.383 75.3493 310.067 75.4546 309.691 75.4546H299.549V81.6246H306.832C307.208 81.6246 307.509 81.745 307.765 81.9708C308.006 82.1965 308.141 82.4824 308.141 82.8436C308.141 83.2048 308.021 83.4907 307.765 83.7164C307.524 83.9422 307.208 84.0625 306.832 84.0625H299.549V90.3981H309.691C310.082 90.3981 310.398 90.5034 310.624 90.7292C310.865 90.9549 310.985 91.2408 310.985 91.587C310.985 91.9632 310.865 92.2641 310.624 92.4899C310.383 92.7156 310.067 92.836 309.691 92.836H298.225C297.864 92.8059 297.548 92.6855 297.292 92.4297Z" fill="#FCFCFC"/>
</g>
<defs>
<clipPath id="clip0_1_78">
<rect width="311" height="111" fill="white"/>
</clipPath>
</defs>
</svg>
