<svg viewBox="0 0 1440 173" fill="none" xmlns="http://www.w3.org/2000/svg">
<path fill-rule="evenodd" clip-rule="evenodd" d="M1440 42.4843L1416 50.1939C1392 57.9036 1344 73.323 1296 86.1724C1248 99.0219 1200 109.301 1152 93.8821C1104 78.4627 1056 37.3445 1008 29.6348C960 21.9251 912 47.624 864 68.1831C816 88.7423 768 104.162 720 104.162C672 104.162 624 88.7423 576 68.1831C528 47.624 480 21.9251 432 9.0756C384 -3.77387 336 -3.77387 288 14.2154C240 32.2046 192 68.1831 144 86.1723C96 104.162 48 104.162 24 104.162L3.05547e-06 104.162L0 135L24 135C48 135 96 135 144 135C192 135 240 135 288 135C336 135 384 135 432 135C480 135 528 135 576 135C624 135 672 135 720 135C768 135 816 135 864 135C912 135 960 135 1008 135C1056 135 1104 135 1152 135C1200 135 1248 135 1296 135C1344 135 1392 135 1416 135L1440 135L1440 42.4843Z" fill="#1e293b"/>
<path fill-rule="evenodd" clip-rule="evenodd" d="M1440 60.736L1416 68.3953C1392 76.0545 1344 91.3731 1296 104.139C1248 116.904 1200 127.116 1152 111.798C1104 96.4793 1056 55.6298 1008 47.9705C960 40.3112 912 65.8421 864 86.2669C816 106.692 768 122.01 720 122.01C672 122.01 624 106.692 576 86.2669C528 65.8421 480 40.3111 432 27.5457C384 14.7802 336 14.7802 288 32.6519C240 50.5235 192 86.2668 144 104.138C96 122.01 48 122.01 24 122.01L3.0355e-06 122.01L0 152.647L24 152.647C48 152.647 96 152.647 144 152.647C192 152.647 240 152.647 288 152.647C336 152.647 384 152.647 432 152.647C480 152.647 528 152.647 576 152.647C624 152.647 672 152.647 720 152.647C768 152.647 816 152.647 864 152.647C912 152.647 960 152.647 1008 152.647C1056 152.647 1104 152.647 1152 152.647C1200 152.647 1248 152.647 1296 152.647C1344 152.647 1392 152.647 1416 152.647L1440 152.647L1440 60.736Z" fill="#64748b"/>
<path fill-rule="evenodd" clip-rule="evenodd" d="M1440 80.4254L1416 88.1351C1392 95.8448 1344 111.264 1296 124.114C1248 136.963 1200 147.243 1152 131.823C1104 116.404 1056 75.2856 1008 67.5759C960 59.8663 912 85.5652 864 106.124C816 126.683 768 142.103 720 142.103C672 142.103 624 126.683 576 106.124C528 85.5651 480 59.8662 432 47.0168C384 34.1673 336 34.1673 288 52.1565C240 70.1458 192 106.124 144 124.113C96 142.103 48 142.103 24 142.103L3.05547e-06 142.103L0 172.941L24 172.941C48 172.941 96 172.941 144 172.941C192 172.941 240 172.941 288 172.941C336 172.941 384 172.941 432 172.941C480 172.941 528 172.941 576 172.941C624 172.941 672 172.941 720 172.941C768 172.941 816 172.941 864 172.941C912 172.941 960 172.941 1008 172.941C1056 172.941 1104 172.942 1152 172.942C1200 172.942 1248 172.942 1296 172.942C1344 172.942 1392 172.942 1416 172.942L1440 172.942L1440 80.4254Z" fill="#374151"/>
</svg>
